<?xml version="1.0" encoding="us-ascii" standalone="no"?><svg xmlns="http://www.w3.org/2000/svg" xmlns:xlink="http://www.w3.org/1999/xlink" contentStyleType="text/css" height="922px" preserveAspectRatio="none" style="width:1561px;height:922px;background:#FFFFFF;" version="1.1" viewBox="0 0 1561 922" width="1561px" zoomAndPan="magnify"><defs/><g><!--class Shape--><g id="elem_Shape"><rect codeLine="2" fill="#F1F1F1" height="66.6211" id="Shape" rx="2.5" ry="2.5" style="stroke:#181818;stroke-width:0.5;" width="126" x="558" y="7"/><ellipse cx="596.85" cy="23" fill="#A9DCDF" rx="11" ry="11" style="stroke:#181818;stroke-width:1.0;"/><path d="M599.0375,24.7656 L594.8969,24.7656 L594.475,25.7969 L594.8969,25.7969 Q595.5063,25.7969 595.7719,26.0313 Q596.0375,26.2656 596.0375,26.6563 Q596.0375,27.0313 595.7719,27.2656 Q595.5063,27.5 594.8969,27.5 L592.6,27.5 Q591.9906,27.5 591.7406,27.2656 Q591.475,27.0313 591.475,26.6406 Q591.475,26.2656 591.7563,26.0313 Q592.0219,25.7813 592.6469,25.7969 L595.3188,19.1406 L594.2094,19.1406 Q593.6,19.1406 593.3344,18.9063 Q593.0688,18.6719 593.0688,18.2813 Q593.0688,17.9063 593.3344,17.6719 Q593.6,17.4375 594.2094,17.4375 L597.8813,17.4375 L601.2719,25.7969 Q601.8656,25.7969 602.0531,25.9375 Q602.4438,26.2031 602.4438,26.6563 Q602.4438,27.0313 602.1781,27.2656 Q601.9281,27.5 601.3188,27.5 L599.0219,27.5 Q598.4125,27.5 598.1469,27.2656 Q597.8813,27.0313 597.8813,26.6406 Q597.8813,26.2656 598.1469,26.0313 Q598.4125,25.7969 599.0219,25.7969 L599.4438,25.7969 L599.0375,24.7656 Z M598.3188,23.0625 L596.9594,19.6875 L595.5844,23.0625 L598.3188,23.0625 Z " fill="#000000"/><text fill="#000000" font-family="sans-serif" font-size="14" font-style="italic" lengthAdjust="spacing" textLength="41" x="616.15" y="28.7969">Shape</text><line style="stroke:#181818;stroke-width:0.5;" x1="559" x2="683" y1="39" y2="39"/><line style="stroke:#181818;stroke-width:0.5;" x1="559" x2="683" y1="47" y2="47"/><polygon fill="#4177AF" points="569,57.8105,565,63.8105,573,63.8105" style="stroke:#1963A0;stroke-width:1.0;"/><text fill="#000000" font-family="sans-serif" font-size="14" font-style="italic" lengthAdjust="spacing" textLength="100" x="578" y="66.1074">String toString()</text></g><!--class Shape3D--><g id="elem_Shape3D"><rect codeLine="6" fill="#F1F1F1" height="85.2422" id="Shape3D" rx="2.5" ry="2.5" style="stroke:#181818;stroke-width:0.5;" width="160" x="405" y="134"/><ellipse cx="451.25" cy="150" fill="#A9DCDF" rx="11" ry="11" style="stroke:#181818;stroke-width:1.0;"/><path d="M453.4375,151.7656 L449.2969,151.7656 L448.875,152.7969 L449.2969,152.7969 Q449.9063,152.7969 450.1719,153.0313 Q450.4375,153.2656 450.4375,153.6563 Q450.4375,154.0313 450.1719,154.2656 Q449.9063,154.5 449.2969,154.5 L447,154.5 Q446.3906,154.5 446.1406,154.2656 Q445.875,154.0313 445.875,153.6406 Q445.875,153.2656 446.1563,153.0313 Q446.4219,152.7813 447.0469,152.7969 L449.7188,146.1406 L448.6094,146.1406 Q448,146.1406 447.7344,145.9063 Q447.4688,145.6719 447.4688,145.2813 Q447.4688,144.9063 447.7344,144.6719 Q448,144.4375 448.6094,144.4375 L452.2813,144.4375 L455.6719,152.7969 Q456.2656,152.7969 456.4531,152.9375 Q456.8438,153.2031 456.8438,153.6563 Q456.8438,154.0313 456.5781,154.2656 Q456.3281,154.5 455.7188,154.5 L453.4219,154.5 Q452.8125,154.5 452.5469,154.2656 Q452.2813,154.0313 452.2813,153.6406 Q452.2813,153.2656 452.5469,153.0313 Q452.8125,152.7969 453.4219,152.7969 L453.8438,152.7969 L453.4375,151.7656 Z M452.7188,150.0625 L451.3594,146.6875 L449.9844,150.0625 L452.7188,150.0625 Z " fill="#000000"/><text fill="#000000" font-family="sans-serif" font-size="14" font-style="italic" lengthAdjust="spacing" textLength="59" x="471.75" y="155.7969">Shape3D</text><line style="stroke:#181818;stroke-width:0.5;" x1="406" x2="564" y1="166" y2="166"/><line style="stroke:#181818;stroke-width:0.5;" x1="406" x2="564" y1="174" y2="174"/><polygon fill="#4177AF" points="416,184.8105,412,190.8105,420,190.8105" style="stroke:#1963A0;stroke-width:1.0;"/><text fill="#000000" font-family="sans-serif" font-size="14" font-style="italic" lengthAdjust="spacing" textLength="134" x="425" y="193.1074">double surfaceArea()</text><polygon fill="#4177AF" points="416,203.4316,412,209.4316,420,209.4316" style="stroke:#1963A0;stroke-width:1.0;"/><text fill="#000000" font-family="sans-serif" font-size="14" font-style="italic" lengthAdjust="spacing" textLength="101" x="425" y="211.7285">double volume()</text></g><!--class Shape2D--><g id="elem_Shape2D"><rect codeLine="12" fill="#F1F1F1" height="85.2422" id="Shape2D" rx="2.5" ry="2.5" style="stroke:#181818;stroke-width:0.5;" width="143" x="944.5" y="134"/><ellipse cx="982.9" cy="150" fill="#A9DCDF" rx="11" ry="11" style="stroke:#181818;stroke-width:1.0;"/><path d="M985.0875,151.7656 L980.9469,151.7656 L980.525,152.7969 L980.9469,152.7969 Q981.5563,152.7969 981.8219,153.0313 Q982.0875,153.2656 982.0875,153.6563 Q982.0875,154.0313 981.8219,154.2656 Q981.5563,154.5 980.9469,154.5 L978.65,154.5 Q978.0406,154.5 977.7906,154.2656 Q977.525,154.0313 977.525,153.6406 Q977.525,153.2656 977.8063,153.0313 Q978.0719,152.7813 978.6969,152.7969 L981.3688,146.1406 L980.2594,146.1406 Q979.65,146.1406 979.3844,145.9063 Q979.1188,145.6719 979.1188,145.2813 Q979.1188,144.9063 979.3844,144.6719 Q979.65,144.4375 980.2594,144.4375 L983.9313,144.4375 L987.3219,152.7969 Q987.9156,152.7969 988.1031,152.9375 Q988.4938,153.2031 988.4938,153.6563 Q988.4938,154.0313 988.2281,154.2656 Q987.9781,154.5 987.3688,154.5 L985.0719,154.5 Q984.4625,154.5 984.1969,154.2656 Q983.9313,154.0313 983.9313,153.6406 Q983.9313,153.2656 984.1969,153.0313 Q984.4625,152.7969 985.0719,152.7969 L985.4938,152.7969 L985.0875,151.7656 Z M984.3688,150.0625 L983.0094,146.6875 L981.6344,150.0625 L984.3688,150.0625 Z " fill="#000000"/><text fill="#000000" font-family="sans-serif" font-size="14" font-style="italic" lengthAdjust="spacing" textLength="59" x="1002.1" y="155.7969">Shape2D</text><line style="stroke:#181818;stroke-width:0.5;" x1="945.5" x2="1086.5" y1="166" y2="166"/><line style="stroke:#181818;stroke-width:0.5;" x1="945.5" x2="1086.5" y1="174" y2="174"/><polygon fill="#4177AF" points="955.5,184.8105,951.5,190.8105,959.5,190.8105" style="stroke:#1963A0;stroke-width:1.0;"/><text fill="#000000" font-family="sans-serif" font-size="14" font-style="italic" lengthAdjust="spacing" textLength="86" x="964.5" y="193.1074">double area()</text><polygon fill="#4177AF" points="955.5,203.4316,951.5,209.4316,959.5,209.4316" style="stroke:#1963A0;stroke-width:1.0;"/><text fill="#000000" font-family="sans-serif" font-size="14" font-style="italic" lengthAdjust="spacing" textLength="117" x="964.5" y="211.7285">double perimeter()</text></g><!--class Sphere--><g id="elem_Sphere"><rect codeLine="18" fill="#F1F1F1" height="141.1055" id="Sphere" rx="2.5" ry="2.5" style="stroke:#181818;stroke-width:0.5;" width="188" x="7" y="316.5"/><ellipse cx="73.75" cy="332.5" fill="#ADD1B2" rx="11" ry="11" style="stroke:#181818;stroke-width:1.0;"/><path d="M76.5156,328.375 Q76.6719,328.1563 76.8594,328.0469 Q77.0469,327.9375 77.2656,327.9375 Q77.6406,327.9375 77.875,328.2031 Q78.1094,328.4531 78.1094,329.0625 L78.1094,330.5156 Q78.1094,331.125 77.875,331.3906 Q77.6406,331.6563 77.2656,331.6563 Q76.9219,331.6563 76.7188,331.4531 Q76.5156,331.2656 76.4063,330.75 Q76.3594,330.3906 76.1719,330.2031 Q75.8438,329.8281 75.2344,329.6094 Q74.625,329.3906 74,329.3906 Q73.2344,329.3906 72.5938,329.7188 Q71.9688,330.0469 71.4688,330.7969 Q70.9844,331.5469 70.9844,332.5781 L70.9844,333.6719 Q70.9844,334.9063 71.875,335.7344 Q72.7656,336.5469 74.3594,336.5469 Q75.2969,336.5469 75.9531,336.2969 Q76.3438,336.1406 76.7656,335.7031 Q77.0313,335.4375 77.1719,335.3594 Q77.3281,335.2813 77.5313,335.2813 Q77.8594,335.2813 78.1094,335.5469 Q78.375,335.7969 78.375,336.1406 Q78.375,336.4844 78.0313,336.8906 Q77.5313,337.4688 76.7344,337.7969 Q75.6563,338.25 74.3594,338.25 Q72.8438,338.25 71.6406,337.625 Q70.6563,337.125 69.9688,336.0625 Q69.2813,334.9844 69.2813,333.7031 L69.2813,332.5469 Q69.2813,331.2188 69.8906,330.0781 Q70.5156,328.9219 71.6094,328.3125 Q72.7031,327.6875 73.9375,327.6875 Q74.6719,327.6875 75.3125,327.8594 Q75.9688,328.0156 76.5156,328.375 Z " fill="#000000"/><text fill="#000000" font-family="sans-serif" font-size="14" lengthAdjust="spacing" textLength="46" x="94.25" y="338.2969">Sphere</text><line style="stroke:#181818;stroke-width:0.5;" x1="8" x2="194" y1="348.5" y2="348.5"/><rect fill="none" height="6" style="stroke:#C82930;stroke-width:1.0;" width="6" x="15" y="360.3105"/><text fill="#000000" font-family="sans-serif" font-size="14" lengthAdjust="spacing" textLength="86" x="27" y="367.6074">double radius</text><line style="stroke:#181818;stroke-width:0.5;" x1="8" x2="194" y1="375.1211" y2="375.1211"/><ellipse cx="18" cy="389.9316" fill="#84BE84" rx="3" ry="3" style="stroke:#038048;stroke-width:1.0;"/><text fill="#000000" font-family="sans-serif" font-size="14" lengthAdjust="spacing" textLength="162" x="27" y="394.2285">&#171;Create&#187; Sphere(double)</text><ellipse cx="18" cy="408.5527" fill="#84BE84" rx="3" ry="3" style="stroke:#038048;stroke-width:1.0;"/><text fill="#000000" font-family="sans-serif" font-size="14" lengthAdjust="spacing" textLength="100" x="27" y="412.8496">String toString()</text><ellipse cx="18" cy="427.1738" fill="#84BE84" rx="3" ry="3" style="stroke:#038048;stroke-width:1.0;"/><text fill="#000000" font-family="sans-serif" font-size="14" lengthAdjust="spacing" textLength="134" x="27" y="431.4707">double surfaceArea()</text><ellipse cx="18" cy="445.7949" fill="#84BE84" rx="3" ry="3" style="stroke:#038048;stroke-width:1.0;"/><text fill="#000000" font-family="sans-serif" font-size="14" lengthAdjust="spacing" textLength="102" x="27" y="450.0918">double volume()</text></g><!--class Cylinder--><g id="elem_Cylinder"><rect codeLine="27" fill="#F1F1F1" height="159.7266" id="Cylinder" rx="2.5" ry="2.5" style="stroke:#181818;stroke-width:0.5;" width="241" x="230.5" y="307"/><ellipse cx="320.75" cy="323" fill="#ADD1B2" rx="11" ry="11" style="stroke:#181818;stroke-width:1.0;"/><path d="M323.5156,318.875 Q323.6719,318.6563 323.8594,318.5469 Q324.0469,318.4375 324.2656,318.4375 Q324.6406,318.4375 324.875,318.7031 Q325.1094,318.9531 325.1094,319.5625 L325.1094,321.0156 Q325.1094,321.625 324.875,321.8906 Q324.6406,322.1563 324.2656,322.1563 Q323.9219,322.1563 323.7188,321.9531 Q323.5156,321.7656 323.4063,321.25 Q323.3594,320.8906 323.1719,320.7031 Q322.8438,320.3281 322.2344,320.1094 Q321.625,319.8906 321,319.8906 Q320.2344,319.8906 319.5938,320.2188 Q318.9688,320.5469 318.4688,321.2969 Q317.9844,322.0469 317.9844,323.0781 L317.9844,324.1719 Q317.9844,325.4063 318.875,326.2344 Q319.7656,327.0469 321.3594,327.0469 Q322.2969,327.0469 322.9531,326.7969 Q323.3438,326.6406 323.7656,326.2031 Q324.0313,325.9375 324.1719,325.8594 Q324.3281,325.7813 324.5313,325.7813 Q324.8594,325.7813 325.1094,326.0469 Q325.375,326.2969 325.375,326.6406 Q325.375,326.9844 325.0313,327.3906 Q324.5313,327.9688 323.7344,328.2969 Q322.6563,328.75 321.3594,328.75 Q319.8438,328.75 318.6406,328.125 Q317.6563,327.625 316.9688,326.5625 Q316.2813,325.4844 316.2813,324.2031 L316.2813,323.0469 Q316.2813,321.7188 316.8906,320.5781 Q317.5156,319.4219 318.6094,318.8125 Q319.7031,318.1875 320.9375,318.1875 Q321.6719,318.1875 322.3125,318.3594 Q322.9688,318.5156 323.5156,318.875 Z " fill="#000000"/><text fill="#000000" font-family="sans-serif" font-size="14" lengthAdjust="spacing" textLength="52" x="341.25" y="328.7969">Cylinder</text><line style="stroke:#181818;stroke-width:0.5;" x1="231.5" x2="470.5" y1="339" y2="339"/><rect fill="none" height="6" style="stroke:#C82930;stroke-width:1.0;" width="6" x="238.5" y="350.8105"/><text fill="#000000" font-family="sans-serif" font-size="14" lengthAdjust="spacing" textLength="86" x="250.5" y="358.1074">double radius</text><rect fill="none" height="6" style="stroke:#C82930;stroke-width:1.0;" width="6" x="238.5" y="369.4316"/><text fill="#000000" font-family="sans-serif" font-size="14" lengthAdjust="spacing" textLength="86" x="250.5" y="376.7285">double height</text><line style="stroke:#181818;stroke-width:0.5;" x1="231.5" x2="470.5" y1="384.2422" y2="384.2422"/><ellipse cx="241.5" cy="399.0527" fill="#84BE84" rx="3" ry="3" style="stroke:#038048;stroke-width:1.0;"/><text fill="#000000" font-family="sans-serif" font-size="14" lengthAdjust="spacing" textLength="215" x="250.5" y="403.3496">&#171;Create&#187; Cylinder(double,double)</text><ellipse cx="241.5" cy="417.6738" fill="#84BE84" rx="3" ry="3" style="stroke:#038048;stroke-width:1.0;"/><text fill="#000000" font-family="sans-serif" font-size="14" lengthAdjust="spacing" textLength="100" x="250.5" y="421.9707">String toString()</text><ellipse cx="241.5" cy="436.2949" fill="#84BE84" rx="3" ry="3" style="stroke:#038048;stroke-width:1.0;"/><text fill="#000000" font-family="sans-serif" font-size="14" lengthAdjust="spacing" textLength="134" x="250.5" y="440.5918">double surfaceArea()</text><ellipse cx="241.5" cy="454.916" fill="#84BE84" rx="3" ry="3" style="stroke:#038048;stroke-width:1.0;"/><text fill="#000000" font-family="sans-serif" font-size="14" lengthAdjust="spacing" textLength="102" x="250.5" y="459.2129">double volume()</text></g><!--class Cone--><g id="elem_Cone"><rect codeLine="37" fill="#F1F1F1" height="159.7266" id="Cone" rx="2.5" ry="2.5" style="stroke:#181818;stroke-width:0.5;" width="223" x="506.5" y="307"/><ellipse cx="596.75" cy="323" fill="#ADD1B2" rx="11" ry="11" style="stroke:#181818;stroke-width:1.0;"/><path d="M599.5156,318.875 Q599.6719,318.6563 599.8594,318.5469 Q600.0469,318.4375 600.2656,318.4375 Q600.6406,318.4375 600.875,318.7031 Q601.1094,318.9531 601.1094,319.5625 L601.1094,321.0156 Q601.1094,321.625 600.875,321.8906 Q600.6406,322.1563 600.2656,322.1563 Q599.9219,322.1563 599.7188,321.9531 Q599.5156,321.7656 599.4063,321.25 Q599.3594,320.8906 599.1719,320.7031 Q598.8438,320.3281 598.2344,320.1094 Q597.625,319.8906 597,319.8906 Q596.2344,319.8906 595.5938,320.2188 Q594.9688,320.5469 594.4688,321.2969 Q593.9844,322.0469 593.9844,323.0781 L593.9844,324.1719 Q593.9844,325.4063 594.875,326.2344 Q595.7656,327.0469 597.3594,327.0469 Q598.2969,327.0469 598.9531,326.7969 Q599.3438,326.6406 599.7656,326.2031 Q600.0313,325.9375 600.1719,325.8594 Q600.3281,325.7813 600.5313,325.7813 Q600.8594,325.7813 601.1094,326.0469 Q601.375,326.2969 601.375,326.6406 Q601.375,326.9844 601.0313,327.3906 Q600.5313,327.9688 599.7344,328.2969 Q598.6563,328.75 597.3594,328.75 Q595.8438,328.75 594.6406,328.125 Q593.6563,327.625 592.9688,326.5625 Q592.2813,325.4844 592.2813,324.2031 L592.2813,323.0469 Q592.2813,321.7188 592.8906,320.5781 Q593.5156,319.4219 594.6094,318.8125 Q595.7031,318.1875 596.9375,318.1875 Q597.6719,318.1875 598.3125,318.3594 Q598.9688,318.5156 599.5156,318.875 Z " fill="#000000"/><text fill="#000000" font-family="sans-serif" font-size="14" lengthAdjust="spacing" textLength="34" x="617.25" y="328.7969">Cone</text><line style="stroke:#181818;stroke-width:0.5;" x1="507.5" x2="728.5" y1="339" y2="339"/><rect fill="none" height="6" style="stroke:#C82930;stroke-width:1.0;" width="6" x="514.5" y="350.8105"/><text fill="#000000" font-family="sans-serif" font-size="14" lengthAdjust="spacing" textLength="86" x="526.5" y="358.1074">double radius</text><rect fill="none" height="6" style="stroke:#C82930;stroke-width:1.0;" width="6" x="514.5" y="369.4316"/><text fill="#000000" font-family="sans-serif" font-size="14" lengthAdjust="spacing" textLength="86" x="526.5" y="376.7285">double height</text><line style="stroke:#181818;stroke-width:0.5;" x1="507.5" x2="728.5" y1="384.2422" y2="384.2422"/><ellipse cx="517.5" cy="399.0527" fill="#84BE84" rx="3" ry="3" style="stroke:#038048;stroke-width:1.0;"/><text fill="#000000" font-family="sans-serif" font-size="14" lengthAdjust="spacing" textLength="197" x="526.5" y="403.3496">&#171;Create&#187; Cone(double,double)</text><ellipse cx="517.5" cy="417.6738" fill="#84BE84" rx="3" ry="3" style="stroke:#038048;stroke-width:1.0;"/><text fill="#000000" font-family="sans-serif" font-size="14" lengthAdjust="spacing" textLength="100" x="526.5" y="421.9707">String toString()</text><ellipse cx="517.5" cy="436.2949" fill="#84BE84" rx="3" ry="3" style="stroke:#038048;stroke-width:1.0;"/><text fill="#000000" font-family="sans-serif" font-size="14" lengthAdjust="spacing" textLength="134" x="526.5" y="440.5918">double surfaceArea()</text><ellipse cx="517.5" cy="454.916" fill="#84BE84" rx="3" ry="3" style="stroke:#038048;stroke-width:1.0;"/><text fill="#000000" font-family="sans-serif" font-size="14" lengthAdjust="spacing" textLength="102" x="526.5" y="459.2129">double volume()</text></g><!--class Rectangle--><g id="elem_Rectangle"><rect codeLine="47" fill="#F1F1F1" height="159.7266" id="Rectangle" rx="2.5" ry="2.5" style="stroke:#181818;stroke-width:0.5;" width="253" x="764.5" y="307"/><ellipse cx="854.75" cy="323" fill="#ADD1B2" rx="11" ry="11" style="stroke:#181818;stroke-width:1.0;"/><path d="M857.5156,318.875 Q857.6719,318.6563 857.8594,318.5469 Q858.0469,318.4375 858.2656,318.4375 Q858.6406,318.4375 858.875,318.7031 Q859.1094,318.9531 859.1094,319.5625 L859.1094,321.0156 Q859.1094,321.625 858.875,321.8906 Q858.6406,322.1563 858.2656,322.1563 Q857.9219,322.1563 857.7188,321.9531 Q857.5156,321.7656 857.4063,321.25 Q857.3594,320.8906 857.1719,320.7031 Q856.8438,320.3281 856.2344,320.1094 Q855.625,319.8906 855,319.8906 Q854.2344,319.8906 853.5938,320.2188 Q852.9688,320.5469 852.4688,321.2969 Q851.9844,322.0469 851.9844,323.0781 L851.9844,324.1719 Q851.9844,325.4063 852.875,326.2344 Q853.7656,327.0469 855.3594,327.0469 Q856.2969,327.0469 856.9531,326.7969 Q857.3438,326.6406 857.7656,326.2031 Q858.0313,325.9375 858.1719,325.8594 Q858.3281,325.7813 858.5313,325.7813 Q858.8594,325.7813 859.1094,326.0469 Q859.375,326.2969 859.375,326.6406 Q859.375,326.9844 859.0313,327.3906 Q858.5313,327.9688 857.7344,328.2969 Q856.6563,328.75 855.3594,328.75 Q853.8438,328.75 852.6406,328.125 Q851.6563,327.625 850.9688,326.5625 Q850.2813,325.4844 850.2813,324.2031 L850.2813,323.0469 Q850.2813,321.7188 850.8906,320.5781 Q851.5156,319.4219 852.6094,318.8125 Q853.7031,318.1875 854.9375,318.1875 Q855.6719,318.1875 856.3125,318.3594 Q856.9688,318.5156 857.5156,318.875 Z " fill="#000000"/><text fill="#000000" font-family="sans-serif" font-size="14" lengthAdjust="spacing" textLength="64" x="875.25" y="328.7969">Rectangle</text><line style="stroke:#181818;stroke-width:0.5;" x1="765.5" x2="1016.5" y1="339" y2="339"/><rect fill="none" height="6" style="stroke:#C82930;stroke-width:1.0;" width="6" x="772.5" y="350.8105"/><text fill="#000000" font-family="sans-serif" font-size="14" lengthAdjust="spacing" textLength="79" x="784.5" y="358.1074">double width</text><rect fill="none" height="6" style="stroke:#C82930;stroke-width:1.0;" width="6" x="772.5" y="369.4316"/><text fill="#000000" font-family="sans-serif" font-size="14" lengthAdjust="spacing" textLength="86" x="784.5" y="376.7285">double height</text><line style="stroke:#181818;stroke-width:0.5;" x1="765.5" x2="1016.5" y1="384.2422" y2="384.2422"/><ellipse cx="775.5" cy="399.0527" fill="#84BE84" rx="3" ry="3" style="stroke:#038048;stroke-width:1.0;"/><text fill="#000000" font-family="sans-serif" font-size="14" lengthAdjust="spacing" textLength="227" x="784.5" y="403.3496">&#171;Create&#187; Rectangle(double,double)</text><ellipse cx="775.5" cy="417.6738" fill="#84BE84" rx="3" ry="3" style="stroke:#038048;stroke-width:1.0;"/><text fill="#000000" font-family="sans-serif" font-size="14" lengthAdjust="spacing" textLength="100" x="784.5" y="421.9707">String toString()</text><ellipse cx="775.5" cy="436.2949" fill="#84BE84" rx="3" ry="3" style="stroke:#038048;stroke-width:1.0;"/><text fill="#000000" font-family="sans-serif" font-size="14" lengthAdjust="spacing" textLength="86" x="784.5" y="440.5918">double area()</text><ellipse cx="775.5" cy="454.916" fill="#84BE84" rx="3" ry="3" style="stroke:#038048;stroke-width:1.0;"/><text fill="#000000" font-family="sans-serif" font-size="14" lengthAdjust="spacing" textLength="117" x="784.5" y="459.2129">double perimeter()</text></g><!--class Circle--><g id="elem_Circle"><rect codeLine="57" fill="#F1F1F1" height="141.1055" id="Circle" rx="2.5" ry="2.5" style="stroke:#181818;stroke-width:0.5;" width="178" x="1053" y="316.5"/><ellipse cx="1119.75" cy="332.5" fill="#ADD1B2" rx="11" ry="11" style="stroke:#181818;stroke-width:1.0;"/><path d="M1122.5156,328.375 Q1122.6719,328.1563 1122.8594,328.0469 Q1123.0469,327.9375 1123.2656,327.9375 Q1123.6406,327.9375 1123.875,328.2031 Q1124.1094,328.4531 1124.1094,329.0625 L1124.1094,330.5156 Q1124.1094,331.125 1123.875,331.3906 Q1123.6406,331.6563 1123.2656,331.6563 Q1122.9219,331.6563 1122.7188,331.4531 Q1122.5156,331.2656 1122.4063,330.75 Q1122.3594,330.3906 1122.1719,330.2031 Q1121.8438,329.8281 1121.2344,329.6094 Q1120.625,329.3906 1120,329.3906 Q1119.2344,329.3906 1118.5938,329.7188 Q1117.9688,330.0469 1117.4688,330.7969 Q1116.9844,331.5469 1116.9844,332.5781 L1116.9844,333.6719 Q1116.9844,334.9063 1117.875,335.7344 Q1118.7656,336.5469 1120.3594,336.5469 Q1121.2969,336.5469 1121.9531,336.2969 Q1122.3438,336.1406 1122.7656,335.7031 Q1123.0313,335.4375 1123.1719,335.3594 Q1123.3281,335.2813 1123.5313,335.2813 Q1123.8594,335.2813 1124.1094,335.5469 Q1124.375,335.7969 1124.375,336.1406 Q1124.375,336.4844 1124.0313,336.8906 Q1123.5313,337.4688 1122.7344,337.7969 Q1121.6563,338.25 1120.3594,338.25 Q1118.8438,338.25 1117.6406,337.625 Q1116.6563,337.125 1115.9688,336.0625 Q1115.2813,334.9844 1115.2813,333.7031 L1115.2813,332.5469 Q1115.2813,331.2188 1115.8906,330.0781 Q1116.5156,328.9219 1117.6094,328.3125 Q1118.7031,327.6875 1119.9375,327.6875 Q1120.6719,327.6875 1121.3125,327.8594 Q1121.9688,328.0156 1122.5156,328.375 Z " fill="#000000"/><text fill="#000000" font-family="sans-serif" font-size="14" lengthAdjust="spacing" textLength="36" x="1140.25" y="338.2969">Circle</text><line style="stroke:#181818;stroke-width:0.5;" x1="1054" x2="1230" y1="348.5" y2="348.5"/><rect fill="none" height="6" style="stroke:#C82930;stroke-width:1.0;" width="6" x="1061" y="360.3105"/><text fill="#000000" font-family="sans-serif" font-size="14" lengthAdjust="spacing" textLength="86" x="1073" y="367.6074">double radius</text><line style="stroke:#181818;stroke-width:0.5;" x1="1054" x2="1230" y1="375.1211" y2="375.1211"/><ellipse cx="1064" cy="389.9316" fill="#84BE84" rx="3" ry="3" style="stroke:#038048;stroke-width:1.0;"/><text fill="#000000" font-family="sans-serif" font-size="14" lengthAdjust="spacing" textLength="152" x="1073" y="394.2285">&#171;Create&#187; Circle(double)</text><ellipse cx="1064" cy="408.5527" fill="#84BE84" rx="3" ry="3" style="stroke:#038048;stroke-width:1.0;"/><text fill="#000000" font-family="sans-serif" font-size="14" lengthAdjust="spacing" textLength="100" x="1073" y="412.8496">String toString()</text><ellipse cx="1064" cy="427.1738" fill="#84BE84" rx="3" ry="3" style="stroke:#038048;stroke-width:1.0;"/><text fill="#000000" font-family="sans-serif" font-size="14" lengthAdjust="spacing" textLength="86" x="1073" y="431.4707">double area()</text><ellipse cx="1064" cy="445.7949" fill="#84BE84" rx="3" ry="3" style="stroke:#038048;stroke-width:1.0;"/><text fill="#000000" font-family="sans-serif" font-size="14" lengthAdjust="spacing" textLength="117" x="1073" y="450.0918">double perimeter()</text></g><!--class Triangle--><g id="elem_Triangle"><rect codeLine="66" fill="#F1F1F1" height="215.5898" id="Triangle" rx="2.5" ry="2.5" style="stroke:#181818;stroke-width:0.5;" width="288" x="1266" y="279"/><ellipse cx="1379.75" cy="295" fill="#ADD1B2" rx="11" ry="11" style="stroke:#181818;stroke-width:1.0;"/><path d="M1382.5156,290.875 Q1382.6719,290.6563 1382.8594,290.5469 Q1383.0469,290.4375 1383.2656,290.4375 Q1383.6406,290.4375 1383.875,290.7031 Q1384.1094,290.9531 1384.1094,291.5625 L1384.1094,293.0156 Q1384.1094,293.625 1383.875,293.8906 Q1383.6406,294.1563 1383.2656,294.1563 Q1382.9219,294.1563 1382.7188,293.9531 Q1382.5156,293.7656 1382.4063,293.25 Q1382.3594,292.8906 1382.1719,292.7031 Q1381.8438,292.3281 1381.2344,292.1094 Q1380.625,291.8906 1380,291.8906 Q1379.2344,291.8906 1378.5938,292.2188 Q1377.9688,292.5469 1377.4688,293.2969 Q1376.9844,294.0469 1376.9844,295.0781 L1376.9844,296.1719 Q1376.9844,297.4063 1377.875,298.2344 Q1378.7656,299.0469 1380.3594,299.0469 Q1381.2969,299.0469 1381.9531,298.7969 Q1382.3438,298.6406 1382.7656,298.2031 Q1383.0313,297.9375 1383.1719,297.8594 Q1383.3281,297.7813 1383.5313,297.7813 Q1383.8594,297.7813 1384.1094,298.0469 Q1384.375,298.2969 1384.375,298.6406 Q1384.375,298.9844 1384.0313,299.3906 Q1383.5313,299.9688 1382.7344,300.2969 Q1381.6563,300.75 1380.3594,300.75 Q1378.8438,300.75 1377.6406,300.125 Q1376.6563,299.625 1375.9688,298.5625 Q1375.2813,297.4844 1375.2813,296.2031 L1375.2813,295.0469 Q1375.2813,293.7188 1375.8906,292.5781 Q1376.5156,291.4219 1377.6094,290.8125 Q1378.7031,290.1875 1379.9375,290.1875 Q1380.6719,290.1875 1381.3125,290.3594 Q1381.9688,290.5156 1382.5156,290.875 Z " fill="#000000"/><text fill="#000000" font-family="sans-serif" font-size="14" lengthAdjust="spacing" textLength="52" x="1400.25" y="300.7969">Triangle</text><line style="stroke:#181818;stroke-width:0.5;" x1="1267" x2="1553" y1="311" y2="311"/><rect fill="none" height="6" style="stroke:#C82930;stroke-width:1.0;" width="6" x="1274" y="322.8105"/><text fill="#000000" font-family="sans-serif" font-size="14" lengthAdjust="spacing" textLength="82" x="1286" y="330.1074">double sideA</text><rect fill="none" height="6" style="stroke:#C82930;stroke-width:1.0;" width="6" x="1274" y="341.4316"/><text fill="#000000" font-family="sans-serif" font-size="14" lengthAdjust="spacing" textLength="82" x="1286" y="348.7285">double sideB</text><rect fill="none" height="6" style="stroke:#C82930;stroke-width:1.0;" width="6" x="1274" y="360.0527"/><text fill="#000000" font-family="sans-serif" font-size="14" lengthAdjust="spacing" textLength="83" x="1286" y="367.3496">double sideC</text><rect fill="none" height="6" style="stroke:#C82930;stroke-width:1.0;" width="6" x="1274" y="378.6738"/><text fill="#000000" font-family="sans-serif" font-size="14" lengthAdjust="spacing" textLength="86" x="1286" y="385.9707">double height</text><line style="stroke:#181818;stroke-width:0.5;" x1="1267" x2="1553" y1="393.4844" y2="393.4844"/><ellipse cx="1277" cy="408.2949" fill="#84BE84" rx="3" ry="3" style="stroke:#038048;stroke-width:1.0;"/><text fill="#000000" font-family="sans-serif" font-size="14" lengthAdjust="spacing" textLength="262" x="1286" y="412.5918">&#171;Create&#187; Triangle(double,double,double)</text><ellipse cx="1277" cy="426.916" fill="#84BE84" rx="3" ry="3" style="stroke:#038048;stroke-width:1.0;"/><text fill="#000000" font-family="sans-serif" font-size="14" lengthAdjust="spacing" textLength="100" x="1286" y="431.2129">String toString()</text><ellipse cx="1277" cy="445.5371" fill="#84BE84" rx="3" ry="3" style="stroke:#038048;stroke-width:1.0;"/><text fill="#000000" font-family="sans-serif" font-size="14" lengthAdjust="spacing" textLength="86" x="1286" y="449.834">double area()</text><ellipse cx="1277" cy="464.1582" fill="#84BE84" rx="3" ry="3" style="stroke:#038048;stroke-width:1.0;"/><text fill="#000000" font-family="sans-serif" font-size="14" lengthAdjust="spacing" textLength="117" x="1286" y="468.4551">double perimeter()</text><ellipse cx="1277" cy="482.7793" fill="#84BE84" rx="3" ry="3" style="stroke:#038048;stroke-width:1.0;"/><text fill="#000000" font-family="sans-serif" font-size="14" lengthAdjust="spacing" textLength="96" x="1286" y="487.0762">double height()</text></g><!--class ShapeArray--><g id="elem_ShapeArray"><rect codeLine="79" fill="#F1F1F1" height="103.8633" id="ShapeArray" rx="2.5" ry="2.5" style="stroke:#181818;stroke-width:0.5;" width="267" x="620.5" y="555"/><ellipse cx="712.25" cy="571" fill="#ADD1B2" rx="11" ry="11" style="stroke:#181818;stroke-width:1.0;"/><path d="M715.0156,566.875 Q715.1719,566.6563 715.3594,566.5469 Q715.5469,566.4375 715.7656,566.4375 Q716.1406,566.4375 716.375,566.7031 Q716.6094,566.9531 716.6094,567.5625 L716.6094,569.0156 Q716.6094,569.625 716.375,569.8906 Q716.1406,570.1563 715.7656,570.1563 Q715.4219,570.1563 715.2188,569.9531 Q715.0156,569.7656 714.9063,569.25 Q714.8594,568.8906 714.6719,568.7031 Q714.3438,568.3281 713.7344,568.1094 Q713.125,567.8906 712.5,567.8906 Q711.7344,567.8906 711.0938,568.2188 Q710.4688,568.5469 709.9688,569.2969 Q709.4844,570.0469 709.4844,571.0781 L709.4844,572.1719 Q709.4844,573.4063 710.375,574.2344 Q711.2656,575.0469 712.8594,575.0469 Q713.7969,575.0469 714.4531,574.7969 Q714.8438,574.6406 715.2656,574.2031 Q715.5313,573.9375 715.6719,573.8594 Q715.8281,573.7813 716.0313,573.7813 Q716.3594,573.7813 716.6094,574.0469 Q716.875,574.2969 716.875,574.6406 Q716.875,574.9844 716.5313,575.3906 Q716.0313,575.9688 715.2344,576.2969 Q714.1563,576.75 712.8594,576.75 Q711.3438,576.75 710.1406,576.125 Q709.1563,575.625 708.4688,574.5625 Q707.7813,573.4844 707.7813,572.2031 L707.7813,571.0469 Q707.7813,569.7188 708.3906,568.5781 Q709.0156,567.4219 710.1094,566.8125 Q711.2031,566.1875 712.4375,566.1875 Q713.1719,566.1875 713.8125,566.3594 Q714.4688,566.5156 715.0156,566.875 Z " fill="#000000"/><text fill="#000000" font-family="sans-serif" font-size="14" lengthAdjust="spacing" textLength="75" x="732.75" y="576.7969">ShapeArray</text><line style="stroke:#181818;stroke-width:0.5;" x1="621.5" x2="886.5" y1="587" y2="587"/><line style="stroke:#181818;stroke-width:0.5;" x1="621.5" x2="886.5" y1="595" y2="595"/><ellipse cx="631.5" cy="609.8105" fill="#84BE84" rx="3" ry="3" style="stroke:#038048;stroke-width:1.0;"/><text fill="#000000" font-family="sans-serif" font-size="14" lengthAdjust="spacing" text-decoration="underline" textLength="115" x="640.5" y="614.1074">void main(String[])</text><ellipse cx="631.5" cy="628.4316" fill="#84BE84" rx="3" ry="3" style="stroke:#038048;stroke-width:1.0;"/><text fill="#000000" font-family="sans-serif" font-size="14" lengthAdjust="spacing" text-decoration="underline" textLength="241" x="640.5" y="632.7285">void shapes2D(double,double,double)</text><ellipse cx="631.5" cy="647.0527" fill="#84BE84" rx="3" ry="3" style="stroke:#038048;stroke-width:1.0;"/><text fill="#000000" font-family="sans-serif" font-size="14" lengthAdjust="spacing" text-decoration="underline" textLength="194" x="640.5" y="651.3496">void shapes3D(double,double)</text></g><!--class ShapeArray$RandomGenerator--><g id="elem_ShapeArray$RandomGenerator"><rect codeLine="91" fill="#F1F1F1" height="196.9688" id="ShapeArray$RandomGenerator" rx="2.5" ry="2.5" style="stroke:#181818;stroke-width:0.5;" width="354" x="577" y="719"/><ellipse cx="649.25" cy="735" fill="#ADD1B2" rx="11" ry="11" style="stroke:#181818;stroke-width:1.0;"/><path d="M652.0156,730.875 Q652.1719,730.6563 652.3594,730.5469 Q652.5469,730.4375 652.7656,730.4375 Q653.1406,730.4375 653.375,730.7031 Q653.6094,730.9531 653.6094,731.5625 L653.6094,733.0156 Q653.6094,733.625 653.375,733.8906 Q653.1406,734.1563 652.7656,734.1563 Q652.4219,734.1563 652.2188,733.9531 Q652.0156,733.7656 651.9063,733.25 Q651.8594,732.8906 651.6719,732.7031 Q651.3438,732.3281 650.7344,732.1094 Q650.125,731.8906 649.5,731.8906 Q648.7344,731.8906 648.0938,732.2188 Q647.4688,732.5469 646.9688,733.2969 Q646.4844,734.0469 646.4844,735.0781 L646.4844,736.1719 Q646.4844,737.4063 647.375,738.2344 Q648.2656,739.0469 649.8594,739.0469 Q650.7969,739.0469 651.4531,738.7969 Q651.8438,738.6406 652.2656,738.2031 Q652.5313,737.9375 652.6719,737.8594 Q652.8281,737.7813 653.0313,737.7813 Q653.3594,737.7813 653.6094,738.0469 Q653.875,738.2969 653.875,738.6406 Q653.875,738.9844 653.5313,739.3906 Q653.0313,739.9688 652.2344,740.2969 Q651.1563,740.75 649.8594,740.75 Q648.3438,740.75 647.1406,740.125 Q646.1563,739.625 645.4688,738.5625 Q644.7813,737.4844 644.7813,736.2031 L644.7813,735.0469 Q644.7813,733.7188 645.3906,732.5781 Q646.0156,731.4219 647.1094,730.8125 Q648.2031,730.1875 649.4375,730.1875 Q650.1719,730.1875 650.8125,730.3594 Q651.4688,730.5156 652.0156,730.875 Z " fill="#000000"/><text fill="#000000" font-family="sans-serif" font-size="14" lengthAdjust="spacing" textLength="201" x="669.75" y="740.7969">ShapeArray$RandomGenerator</text><line style="stroke:#181818;stroke-width:0.5;" x1="578" x2="930" y1="751" y2="751"/><polygon fill="none" points="588,761.8105,584,767.8105,592,767.8105" style="stroke:#1963A0;stroke-width:1.0;"/><text fill="#000000" font-family="sans-serif" font-size="14" lengthAdjust="spacing" textLength="53" x="597" y="770.1074">double x</text><polygon fill="none" points="588,780.4316,584,786.4316,592,786.4316" style="stroke:#1963A0;stroke-width:1.0;"/><text fill="#000000" font-family="sans-serif" font-size="14" lengthAdjust="spacing" textLength="54" x="597" y="788.7285">double y</text><polygon fill="none" points="588,799.0527,584,805.0527,592,805.0527" style="stroke:#1963A0;stroke-width:1.0;"/><text fill="#000000" font-family="sans-serif" font-size="14" lengthAdjust="spacing" textLength="53" x="597" y="807.3496">double z</text><polygon fill="none" points="588,817.6738,584,823.6738,592,823.6738" style="stroke:#1963A0;stroke-width:1.0;"/><text fill="#000000" font-family="sans-serif" font-size="14" lengthAdjust="spacing" textLength="105" x="597" y="825.9707">Random random</text><line style="stroke:#181818;stroke-width:0.5;" x1="578" x2="930" y1="833.4844" y2="833.4844"/><polygon fill="#4177AF" points="588,844.2949,584,850.2949,592,850.2949" style="stroke:#1963A0;stroke-width:1.0;"/><text fill="#000000" font-family="sans-serif" font-size="14" lengthAdjust="spacing" textLength="328" x="597" y="852.5918">&#171;Create&#187; RandomGenerator(double,double,double)</text><ellipse cx="588" cy="866.916" fill="#84BE84" rx="3" ry="3" style="stroke:#038048;stroke-width:1.0;"/><text fill="#000000" font-family="sans-serif" font-size="14" lengthAdjust="spacing" textLength="85" x="597" y="871.2129">double getX()</text><ellipse cx="588" cy="885.5371" fill="#84BE84" rx="3" ry="3" style="stroke:#038048;stroke-width:1.0;"/><text fill="#000000" font-family="sans-serif" font-size="14" lengthAdjust="spacing" textLength="86" x="597" y="889.834">double getY()</text><ellipse cx="588" cy="904.1582" fill="#84BE84" rx="3" ry="3" style="stroke:#038048;stroke-width:1.0;"/><text fill="#000000" font-family="sans-serif" font-size="14" lengthAdjust="spacing" textLength="85" x="597" y="908.4551">double getZ()</text></g><!--reverse link Shape to Shape3D--><g id="link_Shape_Shape3D"><path codeLine="10" d="M573.32,88.48 C558.29,103.29 541.81,119.52 527.2,133.92 " fill="none" id="Shape-backto-Shape3D" style="stroke:#181818;stroke-width:1.0;"/><polygon fill="none" points="568.57,83.33,587.73,74.28,578.4,93.3,568.57,83.33" style="stroke:#181818;stroke-width:1.0;"/></g><!--reverse link Shape to Shape2D--><g id="link_Shape_Shape2D"><path codeLine="16" d="M703.23,69.39 C774.38,93.53 876.24,128.09 944.17,151.13 " fill="none" id="Shape-backto-Shape2D" style="stroke:#181818;stroke-width:1.0;"/><polygon fill="none" points="700.72,75.94,684.03,62.88,705.21,62.68,700.72,75.94" style="stroke:#181818;stroke-width:1.0;"/></g><!--reverse link Shape3D to Sphere--><g id="link_Shape3D_Sphere"><path codeLine="25" d="M385.75,203.88 C332.16,220.68 266.25,245.62 213,279 C196.25,289.5 179.89,302.79 165.07,316.4 " fill="none" id="Shape3D-backto-Sphere" style="stroke:#181818;stroke-width:1.0;"/><polygon fill="none" points="383.73,197.18,404.9,198.05,387.8,210.57,383.73,197.18" style="stroke:#181818;stroke-width:1.0;"/></g><!--reverse link Shape3D to Cylinder--><g id="link_Shape3D_Cylinder"><path codeLine="35" d="M447.2,236.31 C433.14,258.2 416.93,283.41 401.88,306.83 " fill="none" id="Shape3D-backto-Cylinder" style="stroke:#181818;stroke-width:1.0;"/><polygon fill="none" points="441.5,232.23,458.21,219.19,453.28,239.8,441.5,232.23" style="stroke:#181818;stroke-width:1.0;"/></g><!--reverse link Shape3D to Cone--><g id="link_Shape3D_Cone"><path codeLine="45" d="M522.51,236.31 C536.48,258.2 552.56,283.41 567.5,306.83 " fill="none" id="Shape3D-backto-Cone" style="stroke:#181818;stroke-width:1.0;"/><polygon fill="none" points="516.45,239.82,511.59,219.19,528.25,232.29,516.45,239.82" style="stroke:#181818;stroke-width:1.0;"/></g><!--reverse link Shape2D to Rectangle--><g id="link_Shape2D_Rectangle"><path codeLine="55" d="M980.55,236.64 C967.47,258.45 952.43,283.53 938.46,306.83 " fill="none" id="Shape2D-backto-Rectangle" style="stroke:#181818;stroke-width:1.0;"/><polygon fill="none" points="974.72,232.75,991,219.19,986.72,239.94,974.72,232.75" style="stroke:#181818;stroke-width:1.0;"/></g><!--reverse link Shape2D to Circle--><g id="link_Shape2D_Circle"><path codeLine="64" d="M1051.63,236.46 C1066.67,261.35 1084.3,290.53 1099.98,316.47 " fill="none" id="Shape2D-backto-Circle" style="stroke:#181818;stroke-width:1.0;"/><polygon fill="none" points="1045.55,239.93,1041.2,219.19,1057.53,232.69,1045.55,239.93" style="stroke:#181818;stroke-width:1.0;"/></g><!--reverse link Shape2D to Triangle--><g id="link_Shape2D_Triangle"><path codeLine="77" d="M1106.18,212.44 C1150.13,230.56 1203.25,254.08 1249,279 C1254.6,282.05 1260.26,285.24 1265.93,288.52 " fill="none" id="Shape2D-backto-Triangle" style="stroke:#181818;stroke-width:1.0;"/><polygon fill="none" points="1103.52,218.92,1087.63,204.89,1108.8,205.95,1103.52,218.92" style="stroke:#181818;stroke-width:1.0;"/></g><!--reverse link Sphere to ShapeArray--><g id="link_Sphere_ShapeArray"><path codeLine="84" d="M171.81,466.55 C184.61,477.41 198.53,487.42 213,495 C341.25,562.17 506.43,588.72 620.35,599.2 " fill="none" id="Sphere-backto-ShapeArray" style="stroke:#181818;stroke-width:1.0;"/><polygon fill="none" points="161.79,457.69,163.6304,464.6623,170.7742,465.6452,168.9338,458.6729,161.79,457.69" style="stroke:#181818;stroke-width:1.0;"/></g><!--reverse link Cylinder to ShapeArray--><g id="link_Cylinder_ShapeArray"><path codeLine="85" d="M457.22,474.69 C467.72,481.92 478.41,488.82 489,495 C530.04,518.94 577.22,540.43 620.3,557.98 " fill="none" id="Cylinder-backto-ShapeArray" style="stroke:#181818;stroke-width:1.0;"/><polygon fill="none" points="446.37,467.04,448.9722,473.7652,456.1809,473.9498,453.5787,467.2246,446.37,467.04" style="stroke:#181818;stroke-width:1.0;"/></g><!--reverse link Cone to ShapeArray--><g id="link_Cone_ShapeArray"><path codeLine="86" d="M674.21,478.11 C690.52,504.25 707.77,531.89 722.03,554.76 " fill="none" id="Cone-backto-ShapeArray" style="stroke:#181818;stroke-width:1.0;"/><polygon fill="none" points="667.29,467.01,667.0746,474.2179,673.6452,477.1889,673.8606,469.9811,667.29,467.01" style="stroke:#181818;stroke-width:1.0;"/></g><!--reverse link Rectangle to ShapeArray--><g id="link_Rectangle_ShapeArray"><path codeLine="87" d="M834.37,478.11 C817.94,504.25 800.57,531.89 786.2,554.76 " fill="none" id="Rectangle-backto-ShapeArray" style="stroke:#181818;stroke-width:1.0;"/><polygon fill="none" points="841.35,467.01,834.7704,469.9611,834.9639,477.1696,841.5435,474.2185,841.35,467.01" style="stroke:#181818;stroke-width:1.0;"/></g><!--reverse link Circle to ShapeArray--><g id="link_Circle_ShapeArray"><path codeLine="88" d="M1070.92,466.85 C1059.54,477.11 1047.4,486.86 1035,495 C990.16,524.43 936.31,548.06 887.8,565.82 " fill="none" id="Circle-backto-ShapeArray" style="stroke:#181818;stroke-width:1.0;"/><polygon fill="none" points="1080.72,457.73,1073.602,458.8852,1071.9307,465.9,1079.0487,464.7447,1080.72,457.73" style="stroke:#181818;stroke-width:1.0;"/></g><!--reverse link Triangle to ShapeArray--><g id="link_Triangle_ShapeArray"><path codeLine="89" d="M1253.69,492.95 C1252.13,493.65 1250.56,494.33 1249,495 C1132.06,544.93 989.58,573.85 887.57,589.57 " fill="none" id="Triangle-backto-ShapeArray" style="stroke:#181818;stroke-width:1.0;"/><polygon fill="none" points="1265.68,487.34,1258.5498,486.263,1254.8132,492.4305,1261.9434,493.5075,1265.68,487.34" style="stroke:#181818;stroke-width:1.0;"/></g><!--reverse link ShapeArray to ShapeArray$RandomGenerator--><g id="link_ShapeArray_ShapeArray$RandomGenerator"><path codeLine="101" d="M754,674.43 C754,688.55 754,703.74 754,718.76 " fill="none" id="ShapeArray-backto-ShapeArray$RandomGenerator" style="stroke:#181818;stroke-width:1.0;stroke-dasharray:7.0,7.0;"/><ellipse cx="754" cy="667" fill="#FFFFFF" rx="8" ry="8" style="stroke:#181818;stroke-width:1.0;"/><line style="stroke:#181818;stroke-width:1.0;" x1="754" x2="754" y1="675" y2="659"/><line style="stroke:#181818;stroke-width:1.0;" x1="746" x2="762" y1="667" y2="667"/></g><!--SRC=[jLGzRy8m4DtpApnq24fX22j2eY1rXmxzK8SZkIQMye5ifosbzBVNYMEdIHmgrCA2B-VtxjtpsR3bWa4WI900vsGJmmx9mVaY1wWpnurWD8k8oDN27Jb7nm4BRhhg8CEys2P8UC5U8C05Gv1WouRNF2bIh8YLWDddUAmvxRNyWLemM6I7ZAOea5dh-B9EJR-BaPKUZ4cDP13IWZiUcSsMabxWV5xlSjMEaSprNVA8jN_pkTkrj4_fgQYrdEK-eLc8p2B8n37IA1PjWHfNIxo-X59TmsZDCpnRfyHSLAFar_hM60Z8egGbyes68ZwjqU3E4WeTXPO1z6kHfe1nah8W-NK8rIxtlzKeMYtbZj6UPvo6k6Y7D-rmUTfHJTeszE- -UksY_TvqONFRo-I2CTZB_Znou0843Ovod6X8Kg2PgmGyFOzwQLvYkRyQRCAsVRhg3f5Kg9uS-SlrUrH9SipbxoNAcqOiY6R4kmWrKNs4ETzkekVGrHgoC4zlCKC68cVL2rpx_TuizytoGouLICvl-IVZd_UgpJVeOyqMeRXts_539tviJbmTgZUPdEZ0SRu1]--></g></svg>